# xmcd CD database file
#
# Track frame offsets:
#	150
#	16375
#	32465
#	47382
#
# Disc length: 904 seconds
#
# Revision: 0
# Processed by: cddbd v1.5PL3 Copyright (c) Steve Scherf et al.
# Submitted via: CDex 1.50beta8a
#
DISCID=20038604
DTITLE=ピカソ - ブレックファスト ニューズペーパー
DYEAR=1995
DGENRE=J-Pop
TTITLE0=I FEEL DOWN
TTITLE1=STEPPIN' STONE
TTITLE2=MR.MONDAY
TTITLE3=星の旅人
EXTD=YEAR: 1995
EXTT0=
EXTT1=
EXTT2=
EXTT3=
PLAYORDER=
